<svg xmlns="http://www.w3.org/2000/svg" viewBox="0 0 412.4 448.17" fill="param(fill) #000">
    <path d="M379.2,57.06a453.31,453.31,0,0,0-292-51.35C59.91,10.07,38.14,32,33.18,60.07L1.45,239.58c-15.39,87,95.28,196.27,158.31,207.35s204.47-53.79,219.86-140.84l31.73-179.51c5-28.11-8-56.11-32.15-69.52ZM106,153.86a40,40,0,0,1,78.79,13.86,39.5,39.5,0,0,1-4.07,11.4c-8.25-8.91-20.67-15.75-35.32-18.32s-28.67-.4-39.48,5.17a39.07,39.07,0,0,1,.08-12.11Zm70.47,198.76c-55.68-9.79-93.52-59.27-89-112.9,20.6,25.54,56.21,46.17,99.49,53.78s83.82.37,111.93-16.6c-14.18,51.94-66.71,85.51-122.38,75.72Zm130.3-151.34c-8.25-8.91-20.68-15.75-35.33-18.32s-28.67-.4-39.48,5.17A39.32,39.32,0,0,1,232,176a40,40,0,0,1,78.79,13.85,39.29,39.29,0,0,1-4.07,11.4Z"/>
</svg>