<?xml version="1.0" encoding="UTF-8"?>
<svg width="394px" height="123px" viewBox="0 0 394 123" version="1.1" xmlns="http://www.w3.org/2000/svg" xmlns:xlink="http://www.w3.org/1999/xlink">
    <!-- Generator: Sketch 52.5 (67469) - http://www.bohemiancoding.com/sketch -->
    <title>Group</title>
    <desc>Created with Sketch.</desc>
    <g id="Page-1" stroke="none" stroke-width="1" fill="none" fill-rule="evenodd">
        <g id="Desktop-HD-Copy" transform="translate(-516.000000, -309.000000)" fill="#FFFFFF">
            <g id="Group" transform="translate(516.000000, 309.000000)">
                <path d="M0,85.134 L0.154,84.749 C1.232,84.672 3.311,84.133 5.005,83.363 C7.315,82.208 9.779,79.744 12.166,76.741 C22.33,64.421 37.191,45.556 47.817,31.696 L49.665,31.696 C49.819,32.697 50.281,79.128 50.281,79.436 C50.358,81.592 50.435,82.978 51.975,83.748 C53.13,84.364 54.978,84.672 56.441,84.749 L56.287,85.134 L31.724,85.134 L31.878,84.749 C34.265,84.595 37.191,84.21 38.423,83.594 C40.271,82.824 40.81,81.13 40.733,79.667 L40.656,65.268 L22.869,65.268 C19.789,69.118 15.862,74.431 14.707,75.971 C13.244,77.973 11.704,80.129 11.704,81.361 C11.704,83.748 17.094,84.595 19.558,84.749 L19.481,85.134 L0,85.134 Z M23.716,64.113 L40.656,64.113 L40.579,43.015 C38.731,45.171 29.26,57.183 23.716,64.113 Z M112.651,85.981 C108.493,85.981 104.335,84.21 104.335,79.513 C104.335,77.665 104.797,76.202 105.798,73.584 L110.341,61.495 C111.573,58.184 112.497,56.028 112.497,54.334 C112.497,52.255 110.957,51.562 109.34,51.562 C106.106,51.562 102.872,54.488 100.1,59.031 L91.553,85.134 L82.698,85.134 L91.091,59.955 C91.63,58.415 92.631,55.874 92.631,54.411 C92.631,52.64 91.245,51.639 89.474,51.639 C85.162,51.639 81.928,55.643 79.541,59.724 L71.071,85.134 L62.216,85.134 L70.763,60.109 C71.995,56.413 72.919,53.641 72.919,52.255 C72.919,51.023 72.226,50.561 71.225,50.561 C67.683,50.561 64.68,54.488 62.139,61.033 L61.369,60.802 C64.218,54.026 66.913,49.098 72.765,49.098 C76.384,49.098 80.465,51.485 79.695,57.491 L79.926,57.568 C82.929,53.025 86.933,49.098 91.476,49.098 C97.02,49.098 100.254,52.794 99.869,57.491 L100.1,57.491 C102.795,53.256 106.953,49.098 111.804,49.098 C116.347,49.098 120.197,52.64 120.197,57.491 C120.197,58.954 119.427,61.572 118.657,63.42 L114.268,75.124 C112.805,78.974 112.035,81.515 112.035,82.67 C112.035,84.056 113.036,84.518 114.268,84.518 C117.502,84.518 120.736,80.668 123.354,74.123 L124.124,74.354 C121.352,81.207 118.349,85.981 112.651,85.981 Z M136.829,86.212 C128.667,86.212 124.971,81.746 124.971,77.511 C124.971,74.2 127.358,71.428 130.284,71.428 C133.749,71.428 134.673,73.892 134.673,75.355 C134.673,76.972 133.749,79.205 130.592,79.205 C129.052,79.205 127.358,78.743 127.358,79.898 C127.358,82.131 130.9,85.365 136.29,85.365 C140.91,85.365 144.144,82.593 144.144,78.512 C144.144,74.585 140.756,72.275 137.445,69.734 C134.211,67.193 130.977,64.344 130.977,59.647 C130.977,54.026 136.367,49.098 144.529,49.098 C151.536,49.098 154.231,53.718 154.231,56.721 C154.231,60.263 152.614,62.419 149.842,62.419 C147.686,62.419 145.684,61.341 145.684,58.723 C145.684,55.104 151.382,54.642 151.613,53.872 C151.536,52.871 149.611,49.945 144.683,49.945 C141.757,49.945 138.523,52.178 138.523,56.644 C138.523,60.032 141.449,62.265 144.683,64.806 C148.225,67.655 151.536,70.427 151.536,75.278 C151.536,80.976 146.223,86.212 136.829,86.212 Z M166.474,85.981 C162.47,85.981 158.004,84.21 158.004,79.59 C158.004,78.127 158.466,76.356 158.697,75.509 C159.621,72.044 165.319,53.41 165.858,51.639 L158.62,51.639 L159.082,50.407 L166.32,50.407 L169.785,38.472 L178.332,38.472 L174.713,50.407 L183.414,50.407 L183.029,51.639 L174.405,51.639 C172.326,58.646 167.706,74.2 167.013,76.895 C166.243,79.436 165.781,81.669 165.781,82.439 C165.781,84.056 166.551,84.595 167.783,84.595 C171.171,84.595 174.713,80.745 177.331,73.969 L178.101,74.2 C175.252,81.361 172.172,85.981 166.474,85.981 Z M194.425,86.212 C188.111,86.212 181.797,82.901 181.797,73.738 C181.797,64.575 190.498,49.098 204.358,49.098 C208.67,49.098 212.135,51.254 212.135,54.95 C212.135,62.342 204.512,66.885 192.038,68.271 C191.422,71.12 191.037,74.508 191.037,77.126 C191.037,81.361 192.577,84.21 195.965,84.21 C201.74,84.21 206.437,79.282 209.517,73.584 L210.21,73.892 C205.513,82.824 199.969,86.212 194.425,86.212 Z M192.115,67.655 C201.432,66.423 204.743,59.647 204.974,54.719 C205.205,51.331 204.127,49.868 202.51,49.868 C198.66,49.868 194.194,58.8 192.115,67.655 Z M215.061,85.134 L223.146,59.955 C224.224,56.567 225.148,53.718 225.148,52.409 C225.148,51.1 224.455,50.561 223.531,50.561 C220.066,50.561 216.986,54.796 214.522,61.11 L213.752,60.879 C216.601,54.026 219.296,49.098 224.994,49.098 C228.767,49.098 232.617,51.793 231.924,57.799 L232.155,57.876 C234.234,54.103 237.776,49.098 241.857,49.098 C245.168,49.098 247.324,51.639 247.324,54.565 C247.324,57.337 245.784,60.34 242.55,60.34 C239.393,60.34 238.084,58.569 238.161,56.336 C238.238,54.334 240.317,52.794 240.779,51.716 C240.856,51.331 240.779,51.023 240.471,50.869 C237.776,50.869 233.926,55.951 231.77,60.109 L223.916,85.134 L215.061,85.134 Z M255.563,86.135 C251.174,86.135 245.707,83.44 245.707,74.123 C245.707,62.881 256.025,49.098 267.036,49.098 C271.04,49.098 272.888,52.024 273.504,55.181 L273.735,55.181 L279.048,37.317 C279.818,34.93 280.203,33.159 280.203,32.158 C280.203,30.464 278.817,29.925 277.046,29.694 C275.121,29.463 273.273,29.463 271.425,29.386 L271.425,28.77 L290.675,28 L275.814,75.201 C274.736,78.666 274.12,80.668 274.12,82.362 C274.12,83.979 274.813,84.595 275.968,84.595 C279.51,84.595 282.59,80.668 285.131,74.123 L285.901,74.354 C283.129,81.207 280.357,86.058 274.659,86.058 C270.116,86.058 266.805,83.594 267.498,77.896 L267.267,77.819 C264.187,82.516 260.106,86.135 255.563,86.135 Z M258.104,83.902 C261.107,83.902 264.572,80.899 267.19,76.433 L273.119,56.875 C272.58,53.102 270.655,50.638 267.883,50.638 C261.338,50.638 254.562,68.117 254.639,78.512 C254.639,82.362 255.871,83.902 258.104,83.902 Z M298.298,86.135 C293.524,86.135 288.442,83.055 288.442,74.123 C288.442,63.112 298.606,49.098 309.925,49.098 C313.621,49.098 316.008,52.255 316.393,55.181 L316.624,55.181 L318.472,49.56 L327.096,49.56 L318.241,75.201 C316.932,78.897 316.316,81.284 316.239,82.593 C316.239,84.133 316.932,84.749 318.087,84.749 C321.475,84.749 324.94,80.668 327.481,74.123 L328.251,74.354 C325.479,81.207 322.476,86.058 316.778,86.058 C312.466,86.058 309.078,83.748 309.848,77.896 L309.54,77.819 C306.768,82.901 302.61,86.135 298.298,86.135 Z M300.685,83.902 C303.611,83.979 306.691,81.438 309.617,76.202 L315.931,56.875 C315.315,52.794 313.313,50.561 310.541,50.561 C304.227,50.561 297.143,67.809 297.374,78.666 C297.374,82.285 298.606,83.825 300.685,83.902 Z M381.997,85.981 C377.839,85.981 373.681,84.21 373.681,79.513 C373.681,77.665 374.143,76.202 375.144,73.584 L379.687,61.495 C380.919,58.184 381.843,56.028 381.843,54.334 C381.843,52.255 380.303,51.562 378.686,51.562 C375.452,51.562 372.218,54.488 369.446,59.031 L360.899,85.134 L352.044,85.134 L360.437,59.955 C360.976,58.415 361.977,55.874 361.977,54.411 C361.977,52.64 360.591,51.639 358.82,51.639 C354.508,51.639 351.274,55.643 348.887,59.724 L340.417,85.134 L331.562,85.134 L340.109,60.109 C341.341,56.413 342.265,53.641 342.265,52.255 C342.265,51.023 341.572,50.561 340.571,50.561 C337.029,50.561 334.026,54.488 331.485,61.033 L330.715,60.802 C333.564,54.026 336.259,49.098 342.111,49.098 C345.73,49.098 349.811,51.485 349.041,57.491 L349.272,57.568 C352.275,53.025 356.279,49.098 360.822,49.098 C366.366,49.098 369.6,52.794 369.215,57.491 L369.446,57.491 C372.141,53.256 376.299,49.098 381.15,49.098 C385.693,49.098 389.543,52.64 389.543,57.491 C389.543,58.954 388.773,61.572 388.003,63.42 L383.614,75.124 C382.151,78.974 381.381,81.515 381.381,82.67 C381.381,84.056 382.382,84.518 383.614,84.518 C386.848,84.518 390.082,80.668 392.7,74.123 L393.47,74.354 C390.698,81.207 387.695,85.981 381.997,85.981 Z" id="Amsterdam"></path>
                <g id="Group-3" transform="translate(17.000000, 99.000000)">
                    <path d="M55.184,11.44 C55.184,11.7386682 55.0560013,11.888 54.8,11.888 C54.5226653,11.888 54.3733334,11.6853354 54.352,11.28 C54.2879997,10.405329 54.1066682,9.69066944 53.808,9.136 C53.4026646,8.36799616 52.4746739,7.984 51.024,7.984 C50.8106656,7.984 50.4800022,7.99466656 50.032,8.016 L50.032,20.88 C50.032,21.2853354 50.3413302,21.4986666 50.96,21.52 C51.5786698,21.5413334 51.888,21.6266659 51.888,21.776 C51.888,21.9253341 51.7066685,22 51.344,22 L51.12,22 C50.927999,22 50.6293354,21.9893334 50.224,21.968 L48.624,21.968 C48.1759978,21.9893334 47.6000035,22 46.896,22 L46.128,22 C45.7013312,22 45.488,21.9253341 45.488,21.776 C45.488,21.6266659 45.8399965,21.5413334 46.544,21.52 C46.8000013,21.52 46.9706662,21.4986669 47.056,21.456 C47.2266675,21.4133331 47.3226666,21.3013342 47.344,21.12 C47.3653334,20.9386658 47.376,20.4000045 47.376,19.504 L47.376,8.016 C45.7119917,7.99466656 44.6293358,8.16533152 44.128,8.528 C43.6266642,8.89066848 43.2906675,9.74399328 43.12,11.088 C43.0559997,11.5786691 42.9173344,11.824 42.704,11.824 C42.511999,11.824 42.416,11.5786691 42.416,11.088 C42.416,10.4693302 42.511999,9.2533424 42.704,7.44 L50.16,7.504 C50.8213366,7.504 52.1653232,7.48266688 54.192,7.44 C54.3626675,7.44 54.5866653,7.39733376 54.864,7.312 L54.896,7.984 L54.992,9.136 L55.088,10.48 L55.152,11.056 C55.1733334,11.248001 55.184,11.3759997 55.184,11.44 Z M71.216,21.776 C71.216,21.9253341 70.8960032,22 70.256,22 C70.2346666,22 70.128001,21.9893334 69.936,21.968 L67.024,21.968 C66.6613315,21.968 66.4266672,21.9786666 66.32,22 L65.808,22.032 C65.3386643,22.0533334 65.104,21.9786675 65.104,21.808 C65.104,21.6799994 65.2853315,21.6053334 65.648,21.584 C66.3520035,21.5626666 66.7253331,21.4666675 66.768,21.296 C66.8106669,21.1893328 66.832,20.8373363 66.832,20.24 L66.832,14.384 L60.72,14.384 L60.72,20.976 C60.7626669,21.2106678 60.8533326,21.3599997 60.992,21.424 C61.1306674,21.4880003 61.4986637,21.5306666 62.096,21.552 C62.3306678,21.552 62.448,21.6266659 62.448,21.776 C62.448,21.9253341 62.2346688,22 61.808,22 L61.296,22 C60.9973318,21.9786666 60.5600029,21.968 59.984,21.968 L56.848,22 C56.5279984,22 56.368,21.9253341 56.368,21.776 C56.368,21.6266659 56.6773302,21.5413334 57.296,21.52 C57.7653357,21.4986666 58.0213331,21.3706678 58.064,21.136 L58.064,9.168 C58.064,8.57066368 58.0533334,8.25066688 58.032,8.208 C58.0106666,8.03733248 57.8186685,7.952 57.456,7.952 C56.730663,7.93066656 56.368,7.82400096 56.368,7.632 C56.368,7.50399936 56.5173318,7.44 56.816,7.44 L57.072,7.44 C57.5200022,7.44 57.9519979,7.45066656 58.368,7.472 C58.7840021,7.49333344 59.0773325,7.504 59.248,7.504 C59.4826678,7.504 59.9146635,7.49333344 60.544,7.472 C61.1733365,7.45066656 61.5413328,7.44 61.648,7.44 L61.872,7.44 C62.2346685,7.44 62.416,7.52533248 62.416,7.696 C62.416,7.88800096 62.1280029,7.97333344 61.552,7.952 C61.1893315,7.952 60.9600005,7.98933296 60.864,8.064 C60.7679995,8.13866704 60.72,8.35733152 60.72,8.72 L60.72,13.776 L66.832,13.776 L66.832,9.36 C66.832,8.67732992 66.8106669,8.29333376 66.768,8.208 C66.7253331,7.95199872 66.5120019,7.84533312 66.128,7.888 L65.52,7.952 C65.2426653,7.90933312 65.104,7.82400064 65.104,7.696 C65.104,7.52533248 65.3279978,7.44 65.776,7.44 L67.664,7.44 C68.2400029,7.46133344 68.6559987,7.472 68.912,7.472 C69.4240026,7.472 69.775999,7.46133344 69.968,7.44 L70.416,7.44 C70.9280026,7.44 71.184,7.51466592 71.184,7.664 C71.184,7.83466752 71.0400014,7.92 70.752,7.92 C70.4639986,7.92 70.224001,7.93066656 70.032,7.952 C69.7546653,7.952 69.5946669,8.0053328 69.552,8.112 C69.5093331,8.2186672 69.488,8.55999712 69.488,9.136 L69.488,20.208 C69.488,20.933337 69.5413328,21.333333 69.648,21.408 C69.7546672,21.482667 70.1279968,21.52 70.768,21.52 C71.0666682,21.52 71.216,21.6053325 71.216,21.776 Z M86.928,21.84 C86.928,21.9680006 86.7146688,22.032 86.288,22.032 L86.064,22.032 L84.08,21.968 L83.184,21.968 C82.8213315,21.968 82.3200032,21.9786666 81.68,22 L80.72,22.032 L80.144,22.064 L79.984,22.064 C79.5999981,22.064 79.408,21.9786675 79.408,21.808 C79.408,21.6373325 79.7919962,21.5413334 80.56,21.52 C81.4773379,21.4986666 81.936,21.392001 81.936,21.2 C81.936,21.1573331 81.8720006,20.9546685 81.744,20.592 C81.7013331,20.4213325 81.4560022,19.706673 81.008,18.448 L80.624,17.36 L76.048,17.36 C75.173329,19.5573443 74.736,20.826665 74.736,21.168 C74.736,21.360001 74.8639987,21.4666666 75.12,21.488 L75.536,21.52 L76.016,21.52 L76.304,21.552 C76.5600013,21.552 76.688,21.6266659 76.688,21.776 C76.688,21.9466675 76.4640022,22.032 76.016,22.032 C75.9519997,22.032 75.5733368,22.0160002 74.88,21.984 C74.1866632,21.9519998 73.573336,21.936 73.04,21.936 L72.752,21.936 L72.464,21.968 L72.112,22 L72.048,22 C71.706665,22 71.536,21.9360006 71.536,21.808 C71.536,21.6586659 71.6746653,21.5733334 71.952,21.552 C72.3360019,21.5306666 72.5919994,21.5093334 72.72,21.488 C73.0826685,21.4239997 73.3173328,21.3280006 73.424,21.2 C73.5520006,21.1359997 74.0746621,19.9200118 74.992,17.552 C75.3546685,16.5919952 75.706665,15.6960042 76.048,14.864 C76.1760006,14.5653318 76.2613331,14.3413341 76.304,14.192 C76.3466669,14.0426659 76.4319994,13.8186682 76.56,13.52 C76.9226685,12.645329 77.4346634,11.3226755 78.096,9.552 L78.576,8.208 L78.8,7.632 C78.9280006,7.3119984 79.0559994,7.152 79.184,7.152 C79.2480003,7.152 79.3866656,7.45066368 79.6,8.048 C80.2400032,9.60534112 81.89332,13.7226333 84.56,20.4 C84.8160013,21.0613366 85.0613322,21.4133331 85.296,21.456 C85.3600003,21.4773334 85.7013302,21.5093331 86.32,21.552 C86.7253354,21.5733334 86.928,21.6693325 86.928,21.84 Z M80.432,16.784 L78.352,11.312 C77.8399974,12.5920064 77.1360045,14.4159882 76.24,16.784 L80.432,16.784 Z M99.152,11.44 C99.152,11.7386682 99.0240013,11.888 98.768,11.888 C98.4906653,11.888 98.3413334,11.6853354 98.32,11.28 C98.2559997,10.405329 98.0746682,9.69066944 97.776,9.136 C97.3706646,8.36799616 96.4426739,7.984 94.992,7.984 C94.7786656,7.984 94.4480022,7.99466656 94,8.016 L94,20.88 C94,21.2853354 94.3093302,21.4986666 94.928,21.52 C95.5466698,21.5413334 95.856,21.6266659 95.856,21.776 C95.856,21.9253341 95.6746685,22 95.312,22 L95.088,22 C94.895999,22 94.5973354,21.9893334 94.192,21.968 L92.592,21.968 C92.1439978,21.9893334 91.5680035,22 90.864,22 L90.096,22 C89.6693312,22 89.456,21.9253341 89.456,21.776 C89.456,21.6266659 89.8079965,21.5413334 90.512,21.52 C90.7680013,21.52 90.9386662,21.4986669 91.024,21.456 C91.1946675,21.4133331 91.2906666,21.3013342 91.312,21.12 C91.3333334,20.9386658 91.344,20.4000045 91.344,19.504 L91.344,8.016 C89.6799917,7.99466656 88.5973358,8.16533152 88.096,8.528 C87.5946642,8.89066848 87.2586675,9.74399328 87.088,11.088 C87.0239997,11.5786691 86.8853344,11.824 86.672,11.824 C86.479999,11.824 86.384,11.5786691 86.384,11.088 C86.384,10.4693302 86.479999,9.2533424 86.672,7.44 L94.128,7.504 C94.7893366,7.504 96.1333232,7.48266688 98.16,7.44 C98.3306675,7.44 98.5546653,7.39733376 98.832,7.312 L98.864,7.984 L98.96,9.136 L99.056,10.48 L99.12,11.056 C99.1413334,11.248001 99.152,11.3759997 99.152,11.44 Z M112.432,21.808 C112.432,21.9360006 112.336001,22 112.144,22 L111.824,22 L111.152,21.968 L110.32,21.968 C110.149332,21.968 109.968001,21.9573334 109.776,21.936 L109.424,21.936 C109.210666,21.936 108.81067,21.9466666 108.224,21.968 C107.63733,21.9893334 107.194668,22 106.896,22 L106.768,22 C106.405332,22 106.224,21.9360006 106.224,21.808 C106.224,21.6373325 106.458664,21.5413334 106.928,21.52 C107.568003,21.4773331 107.904,21.4026672 107.936,21.296 C107.968,21.1893328 107.984,20.7306707 107.984,19.92 L107.984,9.616 C107.984,8.78399584 107.962667,8.29866736 107.92,8.16 C107.877333,8.02133264 107.717335,7.94133344 107.44,7.92 L106.8,7.888 L106.48,7.888 C106.287999,7.888 106.192,7.81333408 106.192,7.664 C106.192,7.51466592 106.330665,7.44 106.608,7.44 L106.8,7.44 C106.949334,7.46133344 107.183998,7.472 107.504,7.472 L109.808,7.472 C109.936001,7.472 110.127999,7.46133344 110.384,7.44 L111.888,7.44 C112.229335,7.44 112.4,7.52533248 112.4,7.696 C112.4,7.82400064 112.037337,7.89866656 111.312,7.92 C111.013332,7.92 110.832,7.96799952 110.768,8.064 C110.704,8.16000048 110.672,8.45333088 110.672,8.944 L110.672,21.008 C110.672,21.2213344 110.751999,21.3599997 110.912,21.424 C111.072001,21.4880003 111.450664,21.5413331 112.048,21.584 C112.304001,21.6053334 112.432,21.6799994 112.432,21.808 Z M124.048,17.904 C124.048,19.0986726 123.536005,20.1226624 122.512,20.976 C121.487995,21.8293376 120.250674,22.256 118.8,22.256 C117.711995,22.256 116.592006,21.9146701 115.44,21.232 C115.311999,21.1893331 115.226667,21.168 115.184,21.168 C115.055999,21.168 114.981333,21.2746656 114.96,21.488 C114.938667,21.7013344 114.906667,21.8879992 114.864,22.048 C114.821333,22.2080008 114.714668,22.288 114.544,22.288 C114.330666,22.288 114.224,22.1813344 114.224,21.968 C114.224,21.9253331 114.256,21.6053363 114.32,21.008 C114.384,20.4106637 114.416,19.8986688 114.416,19.472 C114.416,19.279999 114.405333,19.0080018 114.384,18.656 C114.362667,18.3039982 114.352,18.032001 114.352,17.84 C114.352,17.4346646 114.458666,17.232 114.672,17.232 C114.885334,17.232 115.045333,17.5626634 115.152,18.224 C115.557335,20.5706784 116.815989,21.744 118.928,21.744 C120.720009,21.744 121.616,20.848009 121.616,19.056 C121.616,18.2666627 121.402669,17.6266691 120.976,17.136 C120.549331,16.6453309 119.71734,16.0906698 118.48,15.472 C116.858659,14.6613293 115.824002,14.0213357 115.376,13.552 C114.799997,12.9333302 114.512,12.1653379 114.512,11.248 C114.512,10.0746608 114.938662,9.10933712 115.792,8.352 C116.645338,7.59466288 117.72266,7.216 119.024,7.216 C119.834671,7.216 120.698662,7.46133088 121.616,7.952 C121.722667,8.01600032 121.808,8.048 121.872,8.048 C122.021334,8.048 122.117333,7.89333488 122.16,7.584 C122.202667,7.27466512 122.330666,7.12 122.544,7.12 C122.757334,7.12 122.864,7.2266656 122.864,7.44 C122.864,7.48266688 122.853333,7.56799936 122.832,7.696 C122.789333,8.03733504 122.768,8.474664 122.768,9.008 C122.768,9.3280016 122.8,9.90399584 122.864,10.736 C122.885333,10.8213338 122.896,10.9173328 122.896,11.024 C122.896,11.2800013 122.810668,11.408 122.64,11.408 C122.447999,11.408 122.309334,11.2160019 122.224,10.832 C122.031999,9.89332864 121.64267,9.14133616 121.056,8.576 C120.46933,8.01066384 119.781337,7.728 118.992,7.728 C117.455992,7.728 116.688,8.54932512 116.688,10.192 C116.688,10.917337 116.890665,11.5146643 117.296,11.984 C117.509334,12.2400013 117.743999,12.4426659 118,12.592 C118.256001,12.7413341 119.00266,13.1146637 120.24,13.712 C121.626674,14.3946701 122.607997,15.0506635 123.184,15.68 C123.760003,16.3093365 124.048,17.0506624 124.048,17.904 Z M145.424,7.696 C145.424,7.86666752 145.189336,7.952 144.72,7.952 C144.656,7.952 144.506668,7.94133344 144.272,7.92 L143.92,7.92 C143.727999,7.92 143.616,7.96266624 143.584,8.048 C143.552,8.13333376 143.536,8.42133088 143.536,8.912 L143.536,20.656 C143.536,21.4240038 143.525333,21.8719994 143.504,22 C143.482667,22.1280006 143.386668,22.192 143.216,22.192 C142.981332,22.192 142.224006,21.3066755 140.944,19.536 C140.794666,19.3013322 140.560002,18.9813354 140.24,18.576 C140.197333,18.5119997 140.080001,18.3520013 139.888,18.096 C138.821328,16.687993 136.890681,14.0426861 134.096,10.16 L134.096,20.24 C134.096,21.0293373 134.207999,21.4453331 134.432,21.488 C134.656001,21.5306669 135.066664,21.552 135.664,21.552 L135.792,21.552 C136.048001,21.552 136.176,21.6266659 136.176,21.776 C136.176,21.9466675 135.941336,22.032 135.472,22.032 C135.386666,22.032 135.03467,22.0106669 134.416,21.968 C134.095998,21.9466666 133.808001,21.936 133.552,21.936 C133.338666,21.936 133.125334,21.9466666 132.912,21.968 C132.506665,22.0106669 132.069336,22.032 131.6,22.032 C131.258665,22.032 131.088,21.9466675 131.088,21.776 C131.088,21.6266659 131.290665,21.552 131.696,21.552 L131.984,21.552 L132.4,21.52 C132.912003,21.4773331 133.178667,21.3813341 133.2,21.232 C133.221333,21.1466662 133.232,20.837336 133.232,20.304 L133.232,11.504 C133.232,9.903992 133.136001,8.9440016 132.944,8.624 C132.687999,8.1973312 132.18667,7.984 131.44,7.984 C130.906664,7.984 130.64,7.88800096 130.64,7.696 C130.64,7.54666592 130.778665,7.472 131.056,7.472 L131.184,7.472 L132.944,7.504 L133.36,7.504 C133.573334,7.48266656 133.765332,7.472 133.936,7.472 L135.12,7.472 L142.672,17.84 L142.672,8.944 C142.672,8.410664 142.650667,8.10133376 142.608,8.016 C142.565333,7.93066624 142.394668,7.888 142.096,7.888 C141.818665,7.888 141.594668,7.89866656 141.424,7.92 L141.232,7.92 C140.826665,7.92 140.624,7.83466752 140.624,7.664 C140.624,7.5573328 140.725332,7.49333344 140.928,7.472 C141.130668,7.45066656 141.85066,7.44 143.088,7.44 C144.261339,7.44 144.943999,7.45066656 145.136,7.472 C145.328001,7.49333344 145.424,7.56799936 145.424,7.696 Z M161.136,14.832 C161.136,16.9013437 160.464007,18.6559928 159.12,20.096 C157.775993,21.5360072 156.133343,22.256 154.192,22.256 C152.122656,22.256 150.378674,21.5253406 148.96,20.064 C147.541326,18.6026594 146.832,16.8160106 146.832,14.704 C146.832,12.5066557 147.509327,10.7093403 148.864,9.312 C150.218673,7.91465968 151.951989,7.216 154.064,7.216 C156.069343,7.216 157.749327,7.94665936 159.104,9.408 C160.458673,10.8693406 161.136,12.6773226 161.136,14.832 Z M158.128,14.928 C158.128,12.453321 157.626672,10.5013405 156.624,9.072 C155.983997,8.15466208 155.098672,7.696 153.968,7.696 C152.410659,7.696 151.280004,8.5493248 150.576,10.256 C150.085331,11.4506726 149.84,12.9653242 149.84,14.8 C149.84,16.9973443 150.223996,18.7146605 150.992,19.952 C151.760004,21.1893395 152.82666,21.808 154.192,21.808 C156.816013,21.808 158.128,19.5146896 158.128,14.928 Z M181.008,19.12 C181.008,20.3146726 180.986667,21.3173293 180.944,22.128 C180.815999,22.1493334 180.656001,22.16 180.464,22.16 C180.442667,22.16 180.277335,22.1440002 179.968,22.112 C179.658665,22.0799998 179.258669,22.064 178.768,22.064 L177.264,22.032 L171.792,21.968 L169.168,22 C168.890665,22 168.752,21.9253341 168.752,21.776 C168.752,21.6479994 169.167996,21.5520003 170,21.488 C170.234668,21.4666666 170.378666,21.4133338 170.432,21.328 C170.485334,21.2426662 170.512,21.0080019 170.512,20.624 L170.512,9.904 C170.512,8.70932736 170.416001,8.08000032 170.224,8.016 C170.138666,7.97333312 169.952001,7.952 169.664,7.952 C169.375999,7.952 169.189334,7.94133344 169.104,7.92 C168.869332,7.92 168.752,7.83466752 168.752,7.664 C168.752,7.51466592 168.890665,7.44 169.168,7.44 L173.584,7.472 C173.818668,7.45066656 174.063999,7.44 174.32,7.44 C174.725335,7.44 174.928,7.53599904 174.928,7.728 C174.928,7.85600064 174.576004,7.93066656 173.872,7.952 C173.530665,7.97333344 173.328,8.04799936 173.264,8.176 C173.2,8.30400064 173.168,8.76266272 173.168,9.552 L173.168,21.424 C174.021338,21.4453334 174.639998,21.456 175.024,21.456 C177.328012,21.456 178.767997,21.2320022 179.344,20.784 C179.813336,20.4213315 180.111999,19.6533392 180.24,18.48 C180.282667,17.9679974 180.399999,17.712 180.592,17.712 C180.869335,17.712 181.008,18.1813286 181.008,19.12 Z M196.496,14.832 C196.496,16.9013437 195.824007,18.6559928 194.48,20.096 C193.135993,21.5360072 191.493343,22.256 189.552,22.256 C187.482656,22.256 185.738674,21.5253406 184.32,20.064 C182.901326,18.6026594 182.192,16.8160106 182.192,14.704 C182.192,12.5066557 182.869327,10.7093403 184.224,9.312 C185.578673,7.91465968 187.311989,7.216 189.424,7.216 C191.429343,7.216 193.109327,7.94665936 194.464,9.408 C195.818673,10.8693406 196.496,12.6773226 196.496,14.832 Z M193.488,14.928 C193.488,12.453321 192.986672,10.5013405 191.984,9.072 C191.343997,8.15466208 190.458672,7.696 189.328,7.696 C187.770659,7.696 186.640004,8.5493248 185.936,10.256 C185.445331,11.4506726 185.2,12.9653242 185.2,14.8 C185.2,16.9973443 185.583996,18.7146605 186.352,19.952 C187.120004,21.1893395 188.18666,21.808 189.552,21.808 C192.176013,21.808 193.488,19.5146896 193.488,14.928 Z M212.144,7.696 C212.144,7.86666752 211.909336,7.952 211.44,7.952 C211.376,7.952 211.226668,7.94133344 210.992,7.92 L210.64,7.92 C210.447999,7.92 210.336,7.96266624 210.304,8.048 C210.272,8.13333376 210.256,8.42133088 210.256,8.912 L210.256,20.656 C210.256,21.4240038 210.245333,21.8719994 210.224,22 C210.202667,22.1280006 210.106668,22.192 209.936,22.192 C209.701332,22.192 208.944006,21.3066755 207.664,19.536 C207.514666,19.3013322 207.280002,18.9813354 206.96,18.576 C206.917333,18.5119997 206.800001,18.3520013 206.608,18.096 C205.541328,16.687993 203.610681,14.0426861 200.816,10.16 L200.816,20.24 C200.816,21.0293373 200.927999,21.4453331 201.152,21.488 C201.376001,21.5306669 201.786664,21.552 202.384,21.552 L202.512,21.552 C202.768001,21.552 202.896,21.6266659 202.896,21.776 C202.896,21.9466675 202.661336,22.032 202.192,22.032 C202.106666,22.032 201.75467,22.0106669 201.136,21.968 C200.815998,21.9466666 200.528001,21.936 200.272,21.936 C200.058666,21.936 199.845334,21.9466666 199.632,21.968 C199.226665,22.0106669 198.789336,22.032 198.32,22.032 C197.978665,22.032 197.808,21.9466675 197.808,21.776 C197.808,21.6266659 198.010665,21.552 198.416,21.552 L198.704,21.552 L199.12,21.52 C199.632003,21.4773331 199.898667,21.3813341 199.92,21.232 C199.941333,21.1466662 199.952,20.837336 199.952,20.304 L199.952,11.504 C199.952,9.903992 199.856001,8.9440016 199.664,8.624 C199.407999,8.1973312 198.90667,7.984 198.16,7.984 C197.626664,7.984 197.36,7.88800096 197.36,7.696 C197.36,7.54666592 197.498665,7.472 197.776,7.472 L197.904,7.472 L199.664,7.504 L200.08,7.504 C200.293334,7.48266656 200.485332,7.472 200.656,7.472 L201.84,7.472 L209.392,17.84 L209.392,8.944 C209.392,8.410664 209.370667,8.10133376 209.328,8.016 C209.285333,7.93066624 209.114668,7.888 208.816,7.888 C208.538665,7.888 208.314668,7.89866656 208.144,7.92 L207.952,7.92 C207.546665,7.92 207.344,7.83466752 207.344,7.664 C207.344,7.5573328 207.445332,7.49333344 207.648,7.472 C207.850668,7.45066656 208.57066,7.44 209.808,7.44 C210.981339,7.44 211.663999,7.45066656 211.856,7.472 C212.048001,7.49333344 212.144,7.56799936 212.144,7.696 Z M228.016,17.584 C228.016,17.6906672 227.824002,17.7546666 227.44,17.776 L226.416,17.808 C226.309333,17.8293334 226.229334,17.9253325 226.176,18.096 C226.122666,18.2666675 226.096,18.6506637 226.096,19.248 L226.096,20.528 C224.687993,21.6800058 223.066676,22.256 221.232,22.256 C218.885322,22.256 217.018674,21.58934 215.632,20.256 C214.245326,18.92266 213.552,17.1466778 213.552,14.928 C213.552,12.6239885 214.229327,10.7626738 215.584,9.344 C216.938673,7.92532624 218.725322,7.216 220.944,7.216 C222.096006,7.216 223.333327,7.57866304 224.656,8.304 C224.762667,8.36800032 224.858666,8.4 224.944,8.4 C225.114668,8.4 225.232,8.26133472 225.296,7.984 C225.424001,7.59999808 225.573332,7.408 225.744,7.408 C225.914668,7.408 226,7.49333248 226,7.664 C226,7.62133312 225.978667,7.80266464 225.936,8.208 C225.872,8.82666976 225.84,10.0533242 225.84,11.888 C225.84,12.3786691 225.712001,12.624 225.456,12.624 C225.263999,12.624 225.168,12.4960013 225.168,12.24 C225.125333,10.8533264 224.736004,9.74933744 224,8.928 C223.263996,8.10666256 222.309339,7.696 221.136,7.696 C219.70666,7.696 218.586671,8.3359936 217.776,9.616 C216.965329,10.8960064 216.56,12.6453222 216.56,14.864 C216.56,16.997344 216.970663,18.6826605 217.792,19.92 C218.613337,21.1573395 219.727993,21.776 221.136,21.776 C222.416006,21.776 223.205332,21.3706707 223.504,20.56 C223.610667,20.2826653 223.664,19.8346698 223.664,19.216 C223.664,18.4479962 223.616,18.0160005 223.52,17.92 C223.424,17.8239995 223.024004,17.776 222.32,17.776 L222.096,17.776 C221.989333,17.7973334 221.893334,17.808 221.808,17.808 C221.637332,17.808 221.552,17.7333341 221.552,17.584 C221.552,17.391999 221.807997,17.296 222.32,17.296 L223.856,17.296 C224.154668,17.3173334 224.314667,17.328 224.336,17.328 C225.829341,17.328 226.682666,17.3173334 226.896,17.296 L227.472,17.296 C227.834668,17.296 228.016,17.391999 228.016,17.584 Z M240.432,18.544 C240.432,18.5653334 240.421333,18.6986654 240.4,18.944 C240.378667,19.1893346 240.368,19.407999 240.368,19.6 L240.336,21.424 C240.336,21.6373344 240.346667,21.8719987 240.368,22.128 L235.056,22.032 L228.976,22.064 C228.527998,22.064 228.304,21.9893341 228.304,21.84 C228.304,21.6693325 228.431999,21.584 228.688,21.584 C229.37067,21.584 229.770666,21.5360005 229.888,21.44 C230.005334,21.3439995 230.064,20.9973363 230.064,20.4 L230.064,9.392 C230.064,8.51732896 229.989334,8.0533336 229.84,8 C229.690666,7.9466664 229.317336,7.92 228.72,7.92 C228.463999,7.92 228.336,7.84533408 228.336,7.696 C228.336,7.52533248 228.474665,7.44 228.752,7.44 L230.16,7.44 L230.512,7.472 L231.312,7.472 C231.418667,7.472 231.951995,7.46133344 232.912,7.44 L238.32,7.44 C238.874669,7.44 239.333332,7.41866688 239.696,7.376 L239.696,7.6 L239.728,8.08 C239.770667,8.4000016 239.855999,9.359992 239.984,10.96 C240.005333,11.0666672 240.016,11.1946659 240.016,11.344 C240.016,11.6213347 239.941334,11.76 239.792,11.76 C239.599999,11.76 239.461334,11.5466688 239.376,11.12 C239.077332,9.49865856 238.512004,8.54933472 237.68,8.272 C237.210664,8.12266592 236.101342,8.048 234.352,8.048 L232.72,8.048 L232.72,14.032 L233.488,14.032 C234.85334,14.032 235.695998,13.9200011 236.016,13.696 C236.336002,13.4719989 236.549333,12.8586717 236.656,11.856 C236.72,11.2586637 236.847999,10.96 237.04,10.96 C237.253334,10.96 237.36,11.1733312 237.36,11.6 C237.36,11.8560013 237.344,12.250664 237.312,12.784 C237.28,13.317336 237.264,13.7226653 237.264,14 C237.264,15.3866736 237.296,16.3359974 237.36,16.848 C237.381333,17.0186675 237.392,17.1573328 237.392,17.264 C237.392,17.605335 237.285334,17.776 237.072,17.776 C236.879999,17.776 236.752,17.509336 236.688,16.976 C236.559999,15.8239942 236.346668,15.1360011 236.048,14.912 C235.749332,14.6879989 234.906674,14.576 233.52,14.576 L232.72,14.576 L232.72,21.488 C235.856016,21.4666666 237.701331,21.3813341 238.256,21.232 C239.109338,20.9973322 239.610666,19.9733424 239.76,18.16 C239.781333,17.8399984 239.898666,17.68 240.112,17.68 C240.325334,17.68 240.432,17.9679971 240.432,18.544 Z M255.056,21.232 C255.056,21.9146701 254.458673,22.256 253.264,22.256 C252.111994,22.256 251.173337,21.818671 250.448,20.944 C250.127998,20.5599981 249.914667,20.1760019 249.808,19.792 C249.701333,19.4079981 249.573334,18.5013405 249.424,17.072 C249.317333,16.1546621 249.024002,15.5146685 248.544,15.152 C248.063998,14.7893315 247.237339,14.5866669 246.064,14.544 L246.064,21.136 C246,21.4346682 246.543994,21.584 247.696,21.584 C247.930668,21.584 248.048,21.6586659 248.048,21.808 C248.048,21.9573341 247.898668,22.032 247.6,22.032 C247.365332,22.032 247.141334,22.0213334 246.928,22 L245.808,22 C245.338664,22 244.773337,22.0106666 244.112,22.032 L242.448,22.032 C241.850664,22.032 241.552,21.9573341 241.552,21.808 C241.552,21.6373325 241.658666,21.552 241.872,21.552 C241.936,21.552 242.042666,21.5626666 242.192,21.584 L242.32,21.584 C243.045337,21.584 243.408,21.4346682 243.408,21.136 L243.408,8.496 C243.408,8.26133216 243.349334,8.10666704 243.232,8.032 C243.114666,7.95733296 242.805336,7.92 242.304,7.92 C241.802664,7.92 241.552,7.83466752 241.552,7.664 C241.552,7.51466592 241.701332,7.44 242,7.44 L242.224,7.44 C242.565335,7.48266688 243.578658,7.504 245.264,7.504 C245.968004,7.504 246.543998,7.49333344 246.992,7.472 C247.440002,7.45066656 247.791999,7.44 248.048,7.44 C249.47734,7.44 250.623996,7.7333304 251.488,8.32 C252.352004,8.9066696 252.784,9.6799952 252.784,10.64 C252.784,11.6853386 252.325338,12.5333301 251.408,13.184 C250.490662,13.8346699 249.200008,14.2133328 247.536,14.32 C249.328009,14.512001 250.559997,14.9813296 251.232,15.728 C251.904003,16.4746704 252.335999,17.818657 252.528,19.76 C252.656001,21.0826733 253.050663,21.744 253.712,21.744 C253.818667,21.744 253.872,21.7120003 253.872,21.648 C253.872,21.6266666 253.845334,21.5573339 253.792,21.44 C253.738666,21.3226661 253.712,21.2320003 253.712,21.168 C253.712,20.7626646 253.925331,20.56 254.352,20.56 C254.821336,20.56 255.056,20.7839978 255.056,21.232 Z M250,10.832 C250,8.9119904 249.050676,7.952 247.152,7.952 C246.661331,7.952 246.357334,7.99999952 246.24,8.096 C246.122666,8.19200048 246.064,8.42133152 246.064,8.784 L246.064,14.032 C248.688013,14.032 250,12.965344 250,10.832 Z M276.496,21.776 C276.496,21.9253341 276.176003,22 275.536,22 C275.514667,22 275.408001,21.9893334 275.216,21.968 L272.304,21.968 C271.941332,21.968 271.706667,21.9786666 271.6,22 L271.088,22.032 C270.618664,22.0533334 270.384,21.9786675 270.384,21.808 C270.384,21.6799994 270.565332,21.6053334 270.928,21.584 C271.632004,21.5626666 272.005333,21.4666675 272.048,21.296 C272.090667,21.1893328 272.112,20.8373363 272.112,20.24 L272.112,14.384 L266,14.384 L266,20.976 C266.042667,21.2106678 266.133333,21.3599997 266.272,21.424 C266.410667,21.4880003 266.778664,21.5306666 267.376,21.552 C267.610668,21.552 267.728,21.6266659 267.728,21.776 C267.728,21.9253341 267.514669,22 267.088,22 L266.576,22 C266.277332,21.9786666 265.840003,21.968 265.264,21.968 L262.128,22 C261.807998,22 261.648,21.9253341 261.648,21.776 C261.648,21.6266659 261.95733,21.5413334 262.576,21.52 C263.045336,21.4986666 263.301333,21.3706678 263.344,21.136 L263.344,9.168 C263.344,8.57066368 263.333333,8.25066688 263.312,8.208 C263.290667,8.03733248 263.098668,7.952 262.736,7.952 C262.010663,7.93066656 261.648,7.82400096 261.648,7.632 C261.648,7.50399936 261.797332,7.44 262.096,7.44 L262.352,7.44 C262.800002,7.44 263.231998,7.45066656 263.648,7.472 C264.064002,7.49333344 264.357332,7.504 264.528,7.504 C264.762668,7.504 265.194664,7.49333344 265.824,7.472 C266.453336,7.45066656 266.821333,7.44 266.928,7.44 L267.152,7.44 C267.514668,7.44 267.696,7.52533248 267.696,7.696 C267.696,7.88800096 267.408003,7.97333344 266.832,7.952 C266.469332,7.952 266.24,7.98933296 266.144,8.064 C266.048,8.13866704 266,8.35733152 266,8.72 L266,13.776 L272.112,13.776 L272.112,9.36 C272.112,8.67732992 272.090667,8.29333376 272.048,8.208 C272.005333,7.95199872 271.792002,7.84533312 271.408,7.888 L270.8,7.952 C270.522665,7.90933312 270.384,7.82400064 270.384,7.696 C270.384,7.52533248 270.607998,7.44 271.056,7.44 L272.944,7.44 C273.520003,7.46133344 273.935999,7.472 274.192,7.472 C274.704003,7.472 275.055999,7.46133344 275.248,7.44 L275.696,7.44 C276.208003,7.44 276.464,7.51466592 276.464,7.664 C276.464,7.83466752 276.320001,7.92 276.032,7.92 C275.743999,7.92 275.504001,7.93066656 275.312,7.952 C275.034665,7.952 274.874667,8.0053328 274.832,8.112 C274.789333,8.2186672 274.768,8.55999712 274.768,9.136 L274.768,20.208 C274.768,20.933337 274.821333,21.333333 274.928,21.408 C275.034667,21.482667 275.407997,21.52 276.048,21.52 C276.346668,21.52 276.496,21.6053325 276.496,21.776 Z M290.096,18.544 C290.096,18.5653334 290.085333,18.6986654 290.064,18.944 C290.042667,19.1893346 290.032,19.407999 290.032,19.6 L290,21.424 C290,21.6373344 290.010667,21.8719987 290.032,22.128 L284.72,22.032 L278.64,22.064 C278.191998,22.064 277.968,21.9893341 277.968,21.84 C277.968,21.6693325 278.095999,21.584 278.352,21.584 C279.03467,21.584 279.434666,21.5360005 279.552,21.44 C279.669334,21.3439995 279.728,20.9973363 279.728,20.4 L279.728,9.392 C279.728,8.51732896 279.653334,8.0533336 279.504,8 C279.354666,7.9466664 278.981336,7.92 278.384,7.92 C278.127999,7.92 278,7.84533408 278,7.696 C278,7.52533248 278.138665,7.44 278.416,7.44 L279.824,7.44 L280.176,7.472 L280.976,7.472 C281.082667,7.472 281.615995,7.46133344 282.576,7.44 L287.984,7.44 C288.538669,7.44 288.997332,7.41866688 289.36,7.376 L289.36,7.6 L289.392,8.08 C289.434667,8.4000016 289.519999,9.359992 289.648,10.96 C289.669333,11.0666672 289.68,11.1946659 289.68,11.344 C289.68,11.6213347 289.605334,11.76 289.456,11.76 C289.263999,11.76 289.125334,11.5466688 289.04,11.12 C288.741332,9.49865856 288.176004,8.54933472 287.344,8.272 C286.874664,8.12266592 285.765342,8.048 284.016,8.048 L282.384,8.048 L282.384,14.032 L283.152,14.032 C284.51734,14.032 285.359998,13.9200011 285.68,13.696 C286.000002,13.4719989 286.213333,12.8586717 286.32,11.856 C286.384,11.2586637 286.511999,10.96 286.704,10.96 C286.917334,10.96 287.024,11.1733312 287.024,11.6 C287.024,11.8560013 287.008,12.250664 286.976,12.784 C286.944,13.317336 286.928,13.7226653 286.928,14 C286.928,15.3866736 286.96,16.3359974 287.024,16.848 C287.045333,17.0186675 287.056,17.1573328 287.056,17.264 C287.056,17.605335 286.949334,17.776 286.736,17.776 C286.543999,17.776 286.416,17.509336 286.352,16.976 C286.223999,15.8239942 286.010668,15.1360011 285.712,14.912 C285.413332,14.6879989 284.570674,14.576 283.184,14.576 L282.384,14.576 L282.384,21.488 C285.520016,21.4666666 287.365331,21.3813341 287.92,21.232 C288.773338,20.9973322 289.274666,19.9733424 289.424,18.16 C289.445333,17.8399984 289.562666,17.68 289.776,17.68 C289.989334,17.68 290.096,17.9679971 290.096,18.544 Z M304.72,21.232 C304.72,21.9146701 304.122673,22.256 302.928,22.256 C301.775994,22.256 300.837337,21.818671 300.112,20.944 C299.791998,20.5599981 299.578667,20.1760019 299.472,19.792 C299.365333,19.4079981 299.237334,18.5013405 299.088,17.072 C298.981333,16.1546621 298.688002,15.5146685 298.208,15.152 C297.727998,14.7893315 296.901339,14.5866669 295.728,14.544 L295.728,21.136 C295.664,21.4346682 296.207994,21.584 297.36,21.584 C297.594668,21.584 297.712,21.6586659 297.712,21.808 C297.712,21.9573341 297.562668,22.032 297.264,22.032 C297.029332,22.032 296.805334,22.0213334 296.592,22 L295.472,22 C295.002664,22 294.437337,22.0106666 293.776,22.032 L292.112,22.032 C291.514664,22.032 291.216,21.9573341 291.216,21.808 C291.216,21.6373325 291.322666,21.552 291.536,21.552 C291.6,21.552 291.706666,21.5626666 291.856,21.584 L291.984,21.584 C292.709337,21.584 293.072,21.4346682 293.072,21.136 L293.072,8.496 C293.072,8.26133216 293.013334,8.10666704 292.896,8.032 C292.778666,7.95733296 292.469336,7.92 291.968,7.92 C291.466664,7.92 291.216,7.83466752 291.216,7.664 C291.216,7.51466592 291.365332,7.44 291.664,7.44 L291.888,7.44 C292.229335,7.48266688 293.242658,7.504 294.928,7.504 C295.632004,7.504 296.207998,7.49333344 296.656,7.472 C297.104002,7.45066656 297.455999,7.44 297.712,7.44 C299.14134,7.44 300.287996,7.7333304 301.152,8.32 C302.016004,8.9066696 302.448,9.6799952 302.448,10.64 C302.448,11.6853386 301.989338,12.5333301 301.072,13.184 C300.154662,13.8346699 298.864008,14.2133328 297.2,14.32 C298.992009,14.512001 300.223997,14.9813296 300.896,15.728 C301.568003,16.4746704 301.999999,17.818657 302.192,19.76 C302.320001,21.0826733 302.714663,21.744 303.376,21.744 C303.482667,21.744 303.536,21.7120003 303.536,21.648 C303.536,21.6266666 303.509334,21.5573339 303.456,21.44 C303.402666,21.3226661 303.376,21.2320003 303.376,21.168 C303.376,20.7626646 303.589331,20.56 304.016,20.56 C304.485336,20.56 304.72,20.7839978 304.72,21.232 Z M299.664,10.832 C299.664,8.9119904 298.714676,7.952 296.816,7.952 C296.325331,7.952 296.021334,7.99999952 295.904,8.096 C295.786666,8.19200048 295.728,8.42133152 295.728,8.784 L295.728,14.032 C298.352013,14.032 299.664,12.965344 299.664,10.832 Z M317.424,18.544 C317.424,18.5653334 317.413333,18.6986654 317.392,18.944 C317.370667,19.1893346 317.36,19.407999 317.36,19.6 L317.328,21.424 C317.328,21.6373344 317.338667,21.8719987 317.36,22.128 L312.048,22.032 L305.968,22.064 C305.519998,22.064 305.296,21.9893341 305.296,21.84 C305.296,21.6693325 305.423999,21.584 305.68,21.584 C306.36267,21.584 306.762666,21.5360005 306.88,21.44 C306.997334,21.3439995 307.056,20.9973363 307.056,20.4 L307.056,9.392 C307.056,8.51732896 306.981334,8.0533336 306.832,8 C306.682666,7.9466664 306.309336,7.92 305.712,7.92 C305.455999,7.92 305.328,7.84533408 305.328,7.696 C305.328,7.52533248 305.466665,7.44 305.744,7.44 L307.152,7.44 L307.504,7.472 L308.304,7.472 C308.410667,7.472 308.943995,7.46133344 309.904,7.44 L315.312,7.44 C315.866669,7.44 316.325332,7.41866688 316.688,7.376 L316.688,7.6 L316.72,8.08 C316.762667,8.4000016 316.847999,9.359992 316.976,10.96 C316.997333,11.0666672 317.008,11.1946659 317.008,11.344 C317.008,11.6213347 316.933334,11.76 316.784,11.76 C316.591999,11.76 316.453334,11.5466688 316.368,11.12 C316.069332,9.49865856 315.504004,8.54933472 314.672,8.272 C314.202664,8.12266592 313.093342,8.048 311.344,8.048 L309.712,8.048 L309.712,14.032 L310.48,14.032 C311.84534,14.032 312.687998,13.9200011 313.008,13.696 C313.328002,13.4719989 313.541333,12.8586717 313.648,11.856 C313.712,11.2586637 313.839999,10.96 314.032,10.96 C314.245334,10.96 314.352,11.1733312 314.352,11.6 C314.352,11.8560013 314.336,12.250664 314.304,12.784 C314.272,13.317336 314.256,13.7226653 314.256,14 C314.256,15.3866736 314.288,16.3359974 314.352,16.848 C314.373333,17.0186675 314.384,17.1573328 314.384,17.264 C314.384,17.605335 314.277334,17.776 314.064,17.776 C313.871999,17.776 313.744,17.509336 313.68,16.976 C313.551999,15.8239942 313.338668,15.1360011 313.04,14.912 C312.741332,14.6879989 311.898674,14.576 310.512,14.576 L309.712,14.576 L309.712,21.488 C312.848016,21.4666666 314.693331,21.3813341 315.248,21.232 C316.101338,20.9973322 316.602666,19.9733424 316.752,18.16 C316.773333,17.8399984 316.890666,17.68 317.104,17.68 C317.317334,17.68 317.424,17.9679971 317.424,18.544 Z" id="that-is-no-longer-he"></path>
                    <path d="M341.736,12.384 C342.344,13.152 342.536,13.664 343.368,14.08 C342.76,12.8 343.208,8.48 341.992,7.488 C342.024,7.488 341.192,7.168 341.192,7.168 C340.328,7.264 340.424,10.176 340.776,11.136 C340.904,11.552 341.448,12 341.736,12.384 Z M347.336,8.096 C347.592,8.832 348.072,9.344 348.264,9.792 C349,8.832 348.68,7.616 348.488,6.528 C348.296,5.792 348.36,5.376 347.88,4.928 C347.688,4.768 347.144,5.376 347.144,5.504 C347.016,6.208 347.144,7.456 347.336,8.096 Z M350.728,10.752 C351.528,10.048 352.52,7.168 352.968,6.016 C353.48,4.576 354.056,3.104 354.504,1.76 C354.76,1.056 354.792,0.224 355.336,0.096 C355.688,-0.032 356.776,0.224 357.192,0.512 C358.024,1.056 358.856,2.368 358.792,3.616 C358.792,3.808 358.856,4.32 358.504,4.32 C358.248,3.968 358.312,3.2 358.024,2.592 C357.832,2.336 357.064,1.184 356.84,1.216 C355.688,1.792 356.232,5.856 356.232,6.656 C356.232,8.288 355.112,10.816 353.928,11.36 C353.384,11.616 352.808,12.128 352.168,12.32 C351.752,12.512 351.4,12.384 350.568,12.32 C350.376,14.784 349.352,16.384 346.6,16.192 C346.728,18.528 345.608,21.44 344.296,22.528 C343.272,23.36 341.32,23.68 339.944,23.392 C336.968,22.816 335.24,21.44 334.6,18.592 C335.08,18.656 334.92,18.464 335.112,18.592 C335.432,18.688 336.168,20.896 336.488,21.184 C336.968,21.696 338.696,22.464 339.912,22.208 C341.416,21.952 342.984,18.24 343.176,16.704 C343.24,16.576 343.4,15.456 343.368,15.232 C343.272,15.232 342.824,15.04 342.728,14.944 C341.832,14.528 340.424,12.704 340.008,11.68 C339.88,11.008 339.4,10.208 339.368,9.504 C339.304,8.736 339.496,7.296 339.816,6.656 C339.784,6.72 340.36,5.824 340.68,5.824 C344.232,7.04 345.608,9.376 346.408,13.152 C346.504,13.664 346.312,13.856 346.6,13.952 C346.696,13.984 347.432,13.152 347.592,12.928 C347.848,12.576 348.36,11.552 348.264,11.072 C348.264,10.944 347.88,10.72 347.848,10.624 C347.336,10.08 346.696,8.928 346.504,7.904 C346.408,7.296 346.504,6.752 346.408,6.24 C346.28,5.472 346.44,3.904 347.144,3.552 C347.112,3.552 347.848,3.424 347.848,3.424 C348.008,3.488 348.264,3.84 348.488,4.032 C349.224,4.576 349.448,4.576 349.768,5.504 C350.312,7.04 350.696,8.96 350.728,10.752 Z" id="i"></path>
                    <path d="M7.736,12.384 C8.344,13.152 8.536,13.664 9.368,14.08 C8.76,12.8 9.208,8.48 7.992,7.488 C8.024,7.488 7.192,7.168 7.192,7.168 C6.328,7.264 6.424,10.176 6.776,11.136 C6.904,11.552 7.448,12 7.736,12.384 Z M13.336,8.096 C13.592,8.832 14.072,9.344 14.264,9.792 C15,8.832 14.68,7.616 14.488,6.528 C14.296,5.792 14.36,5.376 13.88,4.928 C13.688,4.768 13.144,5.376 13.144,5.504 C13.016,6.208 13.144,7.456 13.336,8.096 Z M16.728,10.752 C17.528,10.048 18.52,7.168 18.968,6.016 C19.48,4.576 20.056,3.104 20.504,1.76 C20.76,1.056 20.792,0.224 21.336,0.096 C21.688,-0.032 22.776,0.224 23.192,0.512 C24.024,1.056 24.856,2.368 24.792,3.616 C24.792,3.808 24.856,4.32 24.504,4.32 C24.248,3.968 24.312,3.2 24.024,2.592 C23.832,2.336 23.064,1.184 22.84,1.216 C21.688,1.792 22.232,5.856 22.232,6.656 C22.232,8.288 21.112,10.816 19.928,11.36 C19.384,11.616 18.808,12.128 18.168,12.32 C17.752,12.512 17.4,12.384 16.568,12.32 C16.376,14.784 15.352,16.384 12.6,16.192 C12.728,18.528 11.608,21.44 10.296,22.528 C9.272,23.36 7.32,23.68 5.944,23.392 C2.968,22.816 1.24,21.44 0.6,18.592 C1.08,18.656 0.92,18.464 1.112,18.592 C1.432,18.688 2.168,20.896 2.488,21.184 C2.968,21.696 4.696,22.464 5.912,22.208 C7.416,21.952 8.984,18.24 9.176,16.704 C9.24,16.576 9.4,15.456 9.368,15.232 C9.272,15.232 8.824,15.04 8.728,14.944 C7.832,14.528 6.424,12.704 6.008,11.68 C5.88,11.008 5.4,10.208 5.368,9.504 C5.304,8.736 5.496,7.296 5.816,6.656 C5.784,6.72 6.36,5.824 6.68,5.824 C10.232,7.04 11.608,9.376 12.408,13.152 C12.504,13.664 12.312,13.856 12.6,13.952 C12.696,13.984 13.432,13.152 13.592,12.928 C13.848,12.576 14.36,11.552 14.264,11.072 C14.264,10.944 13.88,10.72 13.848,10.624 C13.336,10.08 12.696,8.928 12.504,7.904 C12.408,7.296 12.504,6.752 12.408,6.24 C12.28,5.472 12.44,3.904 13.144,3.552 C13.112,3.552 13.848,3.424 13.848,3.424 C14.008,3.488 14.264,3.84 14.488,4.032 C15.224,4.576 15.448,4.576 15.768,5.504 C16.312,7.04 16.696,8.96 16.728,10.752 Z" id="i-copy" transform="translate(12.698276, 11.778889) scale(-1, 1) translate(-12.698276, -11.778889) "></path>
                </g>
                <g id="Group-2" transform="translate(125.000000, 0.000000)">
                    <path d="M73.017,16.741 C73.017,16.9383343 72.7950022,17.037 72.351,17.037 L71.981,17.037 C71.6356649,17.0123332 71.0806705,17 70.316,17 L69.021,17 C68.6509981,17 68.170003,17.0123332 67.578,17.037 L65.765,17.037 C65.3209978,17.037 65.099,16.9383343 65.099,16.741 C65.099,16.6176661 65.1544994,16.5436668 65.2655,16.519 C65.3765006,16.4943332 65.7896631,16.4696668 66.505,16.445 C67.0230026,16.4203332 67.3251662,16.346334 67.4115,16.223 C67.4978338,16.0996661 67.541,15.6433373 67.541,14.854 L67.541,2.977 C67.0969978,4.2103395 66.3816716,6.24531915 65.395,9.082 C64.8276638,10.7840085 64.1123376,12.9793199 63.249,15.668 C63.0023321,16.4326705 62.8050007,16.815 62.657,16.815 C62.4596657,16.815 62.2500011,16.4820033 62.028,15.816 C61.4606638,14.1139915 59.7956805,9.89603367 57.033,3.162 L57.033,15.816 C57.033,16.1366683 57.1563321,16.3339996 57.403,16.408 C57.7483351,16.4326668 58.1923306,16.445 58.735,16.445 C59.0556683,16.445 59.216,16.5313325 59.216,16.704 C59.216,16.9013343 58.9693358,17 58.476,17 L57.958,17 C57.7359989,16.9753332 57.4770015,16.963 57.181,16.963 L55.072,17 C54.8499989,17.0246668 54.5786683,17.037 54.258,17.037 C53.8879981,17.037 53.703,16.9383343 53.703,16.741 C53.703,16.5683325 54.0976627,16.4696668 54.887,16.445 C55.4296694,16.4203332 55.7441662,16.3525006 55.8305,16.2415 C55.9168338,16.1304994 55.96,15.7296701 55.96,15.039 L55.96,2.496 C55.96,1.65732914 55.8798341,1.16400074 55.7195,1.016 C55.5591659,0.86799926 55.0226712,0.78166679 54.11,0.757 C53.7893317,0.757 53.629,0.65833432 53.629,0.461 C53.629,0.31299926 53.8386646,0.22666679 54.258,0.202 C54.6773354,0.17733321 56.1573206,0.165 58.698,0.165 L58.846,0.572 C58.9693339,0.84333469 59.1296657,1.2256642 59.327,1.719 L60.215,3.939 C60.4616679,4.55566975 60.880997,5.59165939 61.473,7.047 L63.434,11.894 C63.8040018,10.7099941 64.0876657,9.83433617 64.285,9.267 L67.467,0.165 L70.279,0.165 L71.907,0.128 C72.5483365,0.10333321 72.869,0.2143321 72.869,0.461 C72.869,0.65833432 72.634669,0.76933321 72.166,0.794 C71.5246635,0.81866679 71.1423339,0.84333321 71.019,0.868 C70.6736649,0.99133395 70.501,1.26266457 70.501,1.682 L70.501,14.743 C70.501,15.7296716 70.5873325,16.2599996 70.76,16.334 C70.9326675,16.4080004 71.4999952,16.445 72.462,16.445 C72.8320018,16.445 73.017,16.5436657 73.017,16.741 Z M89.852,0.424 C89.852,0.57200074 89.6916683,0.65833321 89.371,0.683 C88.5076623,0.75700037 87.9588345,0.89266568 87.7245,1.09 C87.4901655,1.28733432 86.9413376,2.2493247 86.078,3.976 C85.3133295,5.53000777 84.5486705,6.96066013 83.784,8.268 C83.4633317,8.81066938 83.2783336,9.19299889 83.229,9.415 C83.1796664,9.63700111 83.155,10.0933299 83.155,10.784 L83.155,15.372 C83.155,15.8653358 83.2289993,16.1551662 83.377,16.2415 C83.5250007,16.3278338 84.0306623,16.3956664 84.894,16.445 C85.3380022,16.4696668 85.56,16.5683325 85.56,16.741 C85.56,16.9136675 85.3873351,17 85.042,17 L84.82,17 L84.043,16.963 L83.081,16.963 C82.8836657,16.963 82.5260026,16.9506668 82.008,16.926 L80.935,16.926 C80.9596668,16.926 80.768502,16.9383332 80.3615,16.963 C79.954498,16.9876668 79.3440041,17 78.53,17 L78.16,17 C77.8393317,17 77.679,16.9136675 77.679,16.741 C77.679,16.5436657 78.0428297,16.4326668 78.7705,16.408 C79.4981703,16.3833332 79.9174994,16.309334 80.0285,16.186 C80.1395006,16.0626661 80.195,15.6310037 80.195,14.891 L80.195,9.97 C80.0469993,9.67399852 79.8250015,9.24233617 79.529,8.675 L76.976,4.161 C76.6059981,3.47032988 76.3100011,2.91533543 76.088,2.496 C75.8659989,2.07666457 75.6070015,1.60800259 75.311,1.09 C75.0889989,0.8433321 74.4723384,0.70766679 73.461,0.683 C73.1403317,0.683 72.98,0.59666753 72.98,0.424 C72.98,0.22666568 73.1403317,0.128 73.461,0.128 C73.4363332,0.128 73.6706642,0.14033321 74.164,0.165 C74.6573358,0.18966679 75.1753306,0.202 75.718,0.202 L76.865,0.202 L80.158,0.165 C80.2813339,0.14033321 80.4169993,0.128 80.565,0.128 C80.9350018,0.128 81.12,0.22666568 81.12,0.424 C81.12,0.59666753 80.7993365,0.683 80.158,0.683 C79.1713284,0.683 78.678,0.84333173 78.678,1.164 C78.678,1.55866864 79.9853203,3.9759778 82.6,8.416 C85.1160126,3.75397669 86.374,1.2996679 86.374,1.053 C86.374,0.85566568 86.1643354,0.74466679 85.745,0.72 L85.079,0.683 L84.746,0.683 C84.3266646,0.683 84.117,0.58433432 84.117,0.387 C84.117,0.21433247 84.3266646,0.128 84.746,0.128 L86.189,0.165 L87.077,0.128 C88.9270092,0.05399963 89.852,0.15266531 89.852,0.424 Z" id="my"></path>
                    <path d="M27.192,9.24 C26.84,8.664 25.848,8.312 25.112,8.248 C25.176,8.856 25.976,9.976 26.68,10.136 C27.512,10.328 27.416,9.72 27.192,9.24 Z M29.112,2.008 C31.384,2.136 36.152,4.12 37.592,6.04 C37.72,6.2 37.784,6.744 38.008,7.032 C38.488,7.8 39.48,8.12 39.48,8.92 C39.48,9.24 39.352,10.072 39.224,10.168 C38.328,11.128 35.992,10.232 35.576,9.432 C34.968,8.472 35.736,7.512 35.384,6.52 C35.064,5.88 31.448,4.632 30.712,4.6 C29.272,4.472 26.776,4.472 25.624,5.048 C25.112,5.208 24.472,6.328 24.824,6.808 C25.016,7.192 26.968,7.224 27.8,8.28 C28.248,8.792 28.728,10.104 28.152,10.904 C27.736,11.576 26.2,11.192 25.624,10.968 C24.216,10.328 24.344,8.504 23.544,8.12 C21.432,7.16 17.304,9.24 15.32,10.136 C12.44,11.576 7.288,12.024 3.96,10.84 C3.416,10.648 0.632,8.088 0.632,7.512 C0.504,6.488 1.656,5.88 2.52,5.88 C3.256,5.88 4.28,6.488 4.216,7 C4.152,7.576 2.84,8.088 2.904,8.664 C2.904,10.04 6.584,9.72 7.288,9.656 C9.144,9.496 10.52,8.792 12.248,8.344 C15.384,7.192 19,6.392 22.392,6.52 C23.448,6.616 23.32,6.744 23.576,5.912 C24.056,3.992 26.84,1.976 29.112,2.008 Z" id="o"></path>
                    <path d="M129.192,9.24 C128.84,8.664 127.848,8.312 127.112,8.248 C127.176,8.856 127.976,9.976 128.68,10.136 C129.512,10.328 129.416,9.72 129.192,9.24 Z M131.112,2.008 C133.384,2.136 138.152,4.12 139.592,6.04 C139.72,6.2 139.784,6.744 140.008,7.032 C140.488,7.8 141.48,8.12 141.48,8.92 C141.48,9.24 141.352,10.072 141.224,10.168 C140.328,11.128 137.992,10.232 137.576,9.432 C136.968,8.472 137.736,7.512 137.384,6.52 C137.064,5.88 133.448,4.632 132.712,4.6 C131.272,4.472 128.776,4.472 127.624,5.048 C127.112,5.208 126.472,6.328 126.824,6.808 C127.016,7.192 128.968,7.224 129.8,8.28 C130.248,8.792 130.728,10.104 130.152,10.904 C129.736,11.576 128.2,11.192 127.624,10.968 C126.216,10.328 126.344,8.504 125.544,8.12 C123.432,7.16 119.304,9.24 117.32,10.136 C114.44,11.576 109.288,12.024 105.96,10.84 C105.416,10.648 102.632,8.088 102.632,7.512 C102.504,6.488 103.656,5.88 104.52,5.88 C105.256,5.88 106.28,6.488 106.216,7 C106.152,7.576 104.84,8.088 104.904,8.664 C104.904,10.04 108.584,9.72 109.288,9.656 C111.144,9.496 112.52,8.792 114.248,8.344 C117.384,7.192 121,6.392 124.392,6.52 C125.448,6.616 125.32,6.744 125.576,5.912 C126.056,3.992 128.84,1.976 131.112,2.008 Z" id="o" transform="translate(122.051097, 6.763112) scale(-1, 1) translate(-122.051097, -6.763112) "></path>
                </g>
            </g>
        </g>
    </g>
</svg>